<?xml version="1.0" encoding="utf-8"?>
<!-- Generator: Adobe Illustrator 18.1.0, SVG Export Plug-In . SVG Version: 6.00 Build 0)  -->
<svg version="1.1" id="Layer_1" xmlns="http://www.w3.org/2000/svg" xmlns:xlink="http://www.w3.org/1999/xlink" x="0px" y="0px"
	 viewBox="0 0 300 300" enable-background="new 0 0 300 300" xml:space="preserve">
<g>
	<g>
		<path fill="#FFFFFF" d="M87.5,221.6c-1.1,0-2.2-0.2-3.3-0.7c-4.3-1.8-6.4-6.8-4.6-11.1c10.8-25.8,33.5-44.6,60.8-50.3
			c28.7-6,57.9,3.1,78.3,24.3c3.3,3.4,3.1,8.8-0.2,12c-3.4,3.2-8.8,3.1-12-0.2c-16.3-16.9-39.6-24.2-62.5-19.4
			c-21.8,4.5-39.9,19.6-48.5,40.2C94,219.7,90.8,221.6,87.5,221.6z"/>
	</g>
	<g>
		<g>
			<path fill="#FFFFFF" d="M142.2,127.7c-22.7,0-44.6-9.2-60.9-26.1c-3.3-3.4-3.1-8.8,0.2-12c3.4-3.2,8.8-3.1,12,0.2
				c16.3,16.9,39.6,24.2,62.5,19.4c21.8-4.5,39.9-19.6,48.5-40.2c1.8-4.3,6.8-6.4,11.1-4.6c4.3,1.8,6.4,6.8,4.6,11.1
				c-10.8,25.8-33.5,44.6-60.8,50.3C153.8,127.1,148,127.7,142.2,127.7z"/>
		</g>
		<g>
			<path fill="#FFFFFF" d="M150,299C67.8,299,1,232.2,1,150S67.8,1,150,1s149,66.8,149,149S232.2,299,150,299z M150,18
				C77.2,18,18,77.2,18,150s59.2,132,132,132s132-59.2,132-132S222.8,18,150,18z"/>
		</g>
		<g>
			<g>
				<circle fill="#FFFFFF" cx="86.3" cy="116.3" r="14"/>
			</g>
			<g>
				<circle fill="#FFFFFF" cx="213.7" cy="116.3" r="14"/>
			</g>
		</g>
	</g>
</g>
</svg>
