<?xml version="1.0" encoding="utf-8"?>
<!-- Generator: Adobe Illustrator 18.1.0, SVG Export Plug-In . SVG Version: 6.00 Build 0)  -->
<svg version="1.1" id="Layer_1" xmlns="http://www.w3.org/2000/svg" xmlns:xlink="http://www.w3.org/1999/xlink" x="0px" y="0px"
	 viewBox="0 0 300 300" enable-background="new 0 0 300 300" xml:space="preserve">
<g>
	<g>
		<path fill="#FFFFFF" d="M150,299C67.8,299,1,232.2,1,150S67.8,1,150,1s149,66.8,149,149S232.2,299,150,299z M150,18
			C77.2,18,18,77.2,18,150s59.2,132,132,132s132-59.2,132-132S222.8,18,150,18z"/>
	</g>
	<g>
		<path fill="#FFFFFF" d="M191,195h-81.6c-4.7,0-8.5-3.8-8.5-8.5s3.8-8.5,8.5-8.5H191c4.7,0,8.5,3.8,8.5,8.5S195.6,195,191,195z"/>
	</g>
	<g>
		<g>
			<circle fill="#FFFFFF" cx="86.3" cy="116.3" r="14"/>
		</g>
		<g>
			<circle fill="#FFFFFF" cx="213.7" cy="116.3" r="14"/>
		</g>
	</g>
</g>
</svg>
