<?xml version="1.0" encoding="utf-8"?>
<!-- Generator: Adobe Illustrator 18.1.0, SVG Export Plug-In . SVG Version: 6.00 Build 0)  -->
<svg version="1.1" id="Layer_1" xmlns="http://www.w3.org/2000/svg" xmlns:xlink="http://www.w3.org/1999/xlink" x="0px" y="0px"
	 viewBox="0 0 300 300" enable-background="new 0 0 300 300" xml:space="preserve">
<g>
	<g>
		<path fill="#FFFFFF" d="M150,299C67.8,299,1,232.2,1,150S67.8,1,150,1s149,66.8,149,149S232.2,299,150,299z M150,18
			C77.2,18,18,77.2,18,150s59.2,132,132,132s132-59.2,132-132S222.8,18,150,18z"/>
	</g>
	<g>
		<path fill="#FFFFFF" d="M150.5,239.5c-37.5,0-71.4-23.7-84.2-59c-1.6-4.4,0.7-9.3,5.1-10.9c4.4-1.6,9.3,0.7,10.9,5.1
			c10.4,28.6,37.8,47.8,68.2,47.8c30.1,0,57.5-19,68-47.3c1.6-4.4,6.5-6.6,10.9-5c4.4,1.6,6.6,6.5,5,10.9
			C221.4,216.1,187.6,239.5,150.5,239.5z"/>
	</g>
	<g>
		<g>
			<circle fill="#FFFFFF" cx="86.3" cy="117.2" r="14"/>
		</g>
		<g>
			<circle fill="#FFFFFF" cx="213.7" cy="117.2" r="14"/>
		</g>
	</g>
</g>
</svg>
