<?xml version="1.0" encoding="utf-8"?>
<!-- Generator: Adobe Illustrator 18.1.0, SVG Export Plug-In . SVG Version: 6.00 Build 0)  -->
<svg version="1.1" id="Layer_1" xmlns="http://www.w3.org/2000/svg" xmlns:xlink="http://www.w3.org/1999/xlink" x="0px" y="0px"
	 viewBox="0 0 300 300" enable-background="new 0 0 300 300" xml:space="preserve">
<g>
	<g>
		<path fill="#FFFFFF" d="M150,299C67.8,299,1,232.2,1,150S67.8,1,150,1s149,66.8,149,149S232.2,299,150,299z M150,18
			C77.2,18,18,77.2,18,150s59.2,132,132,132c72.8,0,132-59.2,132-132S222.8,18,150,18z"/>
	</g>
	<g>
		<path fill="#FFFFFF" d="M221.3,220.9c-3.5,0-6.7-2.1-8-5.6c-9.7-26.6-35.2-44.5-63.5-44.5c-28.1,0-53.5,17.7-63.3,44
			c-1.6,4.4-6.5,6.6-10.9,5c-4.4-1.6-6.6-6.5-5-10.9c12.3-32.9,44.1-55.1,79.2-55.1c35.4,0,67.3,22.4,79.5,55.7
			c1.6,4.4-0.7,9.3-5.1,10.9C223.2,220.7,222.2,220.9,221.3,220.9z"/>
	</g>
	<g>
		<g>
			<circle fill="#FFFFFF" cx="85.8" cy="116.3" r="14"/>
		</g>
		<g>
			<circle fill="#FFFFFF" cx="213.3" cy="116.3" r="14"/>
		</g>
	</g>
</g>
</svg>
