<?xml version="1.0" encoding="utf-8"?>
<!-- Generator: Adobe Illustrator 18.1.0, SVG Export Plug-In . SVG Version: 6.00 Build 0)  -->
<svg version="1.1" id="Layer_1" xmlns="http://www.w3.org/2000/svg" xmlns:xlink="http://www.w3.org/1999/xlink" x="0px" y="0px"
	 viewBox="0 0 310 65" enable-background="new 0 0 310 65" xml:space="preserve">
<g>
	<path fill="#FFFFFF" d="M18.9,16.5h6.3V24h-6.3v13.1c0,2.7,1.3,3.6,3.7,3.6c1,0,2.2-0.1,2.6-0.3v7c-0.8,0.3-2.3,0.8-4.8,0.8
		c-6.1,0-9.9-3.6-9.9-9.7V24H4.8v-7.5h1.6c3.3,0,4.8-2.2,4.8-5V7.2h7.6V16.5z"/>
	<path fill="#FFFFFF" d="M39.3,47.8h-8.4v-46h8.4v17.3c2-2.4,5.5-3.4,8.5-3.4c7.9,0,11.6,5.5,11.6,12.4v19.7h-8.4V29.6
		c0-3.5-1.7-6.2-5.8-6.2c-3.6,0-5.7,2.7-5.8,6.1V47.8z"/>
	<path fill="#FFFFFF" d="M93.4,38.8c-1.6,5.4-6.5,9.9-14.2,9.9c-8.6,0-16.1-6.2-16.1-16.7c0-10,7.4-16.5,15.4-16.5
		c9.7,0,15.4,6.2,15.4,16.2c0,1.2-0.1,2.5-0.1,2.6H71.4c0.2,4.1,3.7,7.1,7.9,7.1c3.9,0,6.1-2,7.1-4.8L93.4,38.8z M85.5,28.6
		c-0.1-3.1-2.2-6.2-7-6.2c-4.4,0-6.8,3.3-7,6.2H85.5z"/>
	<path fill="#FFFFFF" d="M117.1,24.9c-1-0.2-1.8-0.3-2.5-0.3c-4.3,0-8.1,2.1-8.1,8.8v14.3H98V16.5h8.2v4.6c1.9-4.1,6.2-4.9,8.9-4.9
		c0.7,0,1.3,0.1,2,0.1V24.9z"/>
	<path fill="#FFFFFF" d="M128.1,29.8l7.7-1.1c1.8-0.3,2.3-1.1,2.3-2.2c0-2.2-1.7-4.1-5.3-4.1c-3.7,0-5.7,2.4-6,5.1l-7.5-1.6
		c0.5-4.9,5-10.3,13.4-10.3c9.9,0,13.6,5.6,13.6,11.9v15.4c0,1.7,0.2,3.9,0.4,5h-7.8c-0.2-0.8-0.3-2.5-0.3-3.7
		c-1.6,2.5-4.6,4.6-9.2,4.6c-6.7,0-10.7-4.5-10.7-9.4C118.8,33.7,122.9,30.6,128.1,29.8z M138.2,35.2v-1.4l-7.1,1.1
		c-2.2,0.3-3.9,1.5-3.9,3.9c0,1.8,1.3,3.6,4.1,3.6C134.9,42.4,138.2,40.7,138.2,35.2z"/>
	<path fill="#FFFFFF" d="M152.4,59.9V16.5h8.2v3.8c1.4-2.4,4.9-4.5,9.6-4.5c9.1,0,14.4,7,14.4,16.3c0,9.5-5.9,16.5-14.7,16.5
		c-4.3,0-7.5-1.7-9-3.8v15.1H152.4z M168.6,23.4c-4.3,0-7.8,3.2-7.8,8.8s3.5,8.8,7.8,8.8c4.3,0,7.8-3.2,7.8-8.8
		C176.3,26.6,172.9,23.4,168.6,23.4z"/>
	<path fill="#FFFFFF" d="M202.9,1.1l4.9,4.5c-6.8,7.2-11.1,15.6-11.1,27.1s4.3,19.9,11.1,27.1l-4.9,4.4c-7.4-7.2-13.3-17-13.3-31.6
		S195.5,8.4,202.9,1.1z"/>
	<path fill="#FFFFFF" d="M207.2,47.8V16.5h8.1v3.8c1.7-3,5.7-4.7,9.1-4.7c4.3,0,7.7,1.8,9.3,5.2c2.5-3.8,5.8-5.2,9.9-5.2
		c5.8,0,11.3,3.5,11.3,11.9v20.3h-8.2V29.2c0-3.4-1.7-5.9-5.5-5.9c-3.6,0-5.8,2.8-5.8,6.2v18.3h-8.4V29.2c0-3.4-1.7-5.9-5.5-5.9
		c-3.7,0-5.8,2.7-5.8,6.2v18.3H207.2z"/>
	<path fill="#FFFFFF" d="M289,38.8c-1.6,5.4-6.5,9.9-14.2,9.9c-8.6,0-16.1-6.2-16.1-16.7c0-10,7.4-16.5,15.4-16.5
		c9.7,0,15.4,6.2,15.4,16.2c0,1.2-0.1,2.5-0.1,2.6H267c0.2,4.1,3.7,7.1,7.9,7.1c3.9,0,6.1-2,7.1-4.8L289,38.8z M281.2,28.6
		c-0.1-3.1-2.2-6.2-7-6.2c-4.4,0-6.8,3.3-7,6.2H281.2z"/>
	<path fill="#FFFFFF" d="M291.5,64.2l-4.9-4.4c6.8-7.2,11.1-15.7,11.1-27.1s-4.3-19.8-11.1-27.1l4.9-4.5c7.4,7.3,13.3,17,13.3,31.6
		S298.9,57,291.5,64.2z"/>
</g>
</svg>
